<?xml version="1.0" standalone="no"?>
<!DOCTYPE svg PUBLIC "-//W3C//DTD SVG 20010904//EN"
 "http://www.w3.org/TR/2001/REC-SVG-20010904/DTD/svg10.dtd">
<svg version="1.0" xmlns="http://www.w3.org/2000/svg"
 width="200.000000pt" height="200.000000pt" viewBox="0 0 200.000000 200.000000"
 preserveAspectRatio="xMidYMid meet">

<g transform="translate(0.000000,200.000000) scale(0.100000,-0.100000)"
fill="#000000" stroke="none">
<path d="M1262 1668 c-7 -7 -32 -18 -55 -24 -36 -9 -42 -14 -42 -37 0 -19 -11
-34 -42 -57 -47 -34 -87 -108 -98 -177 -8 -54 -31 -81 -72 -89 -26 -5 -34 -3
-39 12 -41 125 -133 231 -224 258 -30 9 -73 16 -98 16 l-44 0 41 -46 c45 -52
48 -63 25 -99 -15 -23 -15 -27 4 -57 15 -25 21 -57 24 -128 6 -112 27 -170 81
-216 31 -28 130 -74 158 -74 6 0 8 -9 4 -19 -4 -13 3 -28 18 -45 14 -14 30
-47 37 -72 12 -41 11 -47 -3 -56 -10 -5 -17 -16 -17 -23 0 -18 2 -18 34 -4 19
9 37 9 72 0 38 -10 49 -10 55 1 6 9 -3 16 -35 24 -64 17 -66 19 -66 88 0 72
16 94 85 116 86 28 154 91 197 186 20 43 23 66 24 187 1 152 10 177 66 177 32
0 35 6 12 31 -14 16 -13 21 15 59 38 53 32 72 -19 64 -23 -4 -40 -2 -44 5 -10
15 -39 14 -54 -1z m42 -119 c6 -5 4 -14 -7 -21 -19 -15 -47 -78 -47 -108 0
-16 -5 -21 -22 -18 -18 2 -26 13 -35 52 -13 51 -28 69 -51 61 -31 -11 4 19 42
36 41 19 100 18 120 -2z m-589 -39 c50 -21 110 -86 141 -154 30 -64 30 -76 2
-76 -28 0 -103 -33 -113 -50 -14 -22 5 -23 54 -1 30 13 71 21 104 21 30 0 68
5 86 11 30 11 61 52 61 82 0 7 7 36 15 64 11 36 22 53 40 61 42 19 52 15 59
-27 7 -45 48 -85 78 -76 16 6 18 0 18 -52 0 -78 -24 -166 -57 -213 -37 -51
-118 -109 -164 -116 -24 -4 -49 -18 -70 -40 -18 -19 -37 -34 -41 -34 -4 0 -8
15 -8 34 0 31 -2 34 -41 40 -57 9 -125 43 -154 78 -34 41 -55 118 -55 208 0
54 -5 82 -17 99 -13 19 -14 28 -5 42 18 28 14 68 -9 100 l-21 30 29 -7 c15 -3
46 -14 68 -24z"/>
<path d="M1236 1543 c-11 -11 -6 -23 9 -23 8 0 15 4 15 9 0 13 -16 22 -24 14z"/>
<path d="M1134 1243 c-16 -52 -43 -89 -89 -119 -27 -17 -60 -35 -71 -38 -18
-6 -21 -3 -17 17 5 23 2 24 -61 30 -36 3 -74 12 -85 19 -15 9 -23 10 -32 1
-17 -17 29 -42 88 -50 46 -5 49 -7 45 -29 -6 -34 16 -38 80 -14 89 33 160 104
169 169 5 29 -18 41 -27 14z"/>
<path d="M523 738 c-26 -12 -31 -38 -8 -38 23 0 22 -345 -1 -354 -27 -11 -4
-26 40 -26 49 0 61 7 44 28 -18 22 -14 121 7 165 19 40 56 58 84 40 12 -8 17
-30 18 -99 4 -121 8 -134 39 -134 29 0 64 16 64 30 0 5 -10 9 -22 7 -22 -2
-23 1 -28 106 -6 122 -14 137 -78 137 -27 0 -42 -8 -68 -36 l-34 -35 0 110 c0
120 -3 125 -57 99z"/>
<path d="M1553 738 c-26 -12 -31 -38 -8 -38 23 0 22 -345 -1 -354 -27 -11 -4
-26 40 -26 23 0 45 3 48 6 3 3 -1 19 -9 35 -18 35 -11 114 12 159 19 36 69 55
90 34 34 -34 -2 -84 -60 -84 l-36 0 19 -27 c11 -16 31 -49 46 -75 28 -51 54
-60 97 -38 27 15 23 29 -8 27 -22 -2 -31 6 -50 38 -27 47 -28 55 -9 55 19 0
66 57 66 79 0 10 -9 30 -21 45 -31 39 -81 36 -125 -8 l-34 -34 0 109 c0 118
-3 123 -57 97z"/>
<path d="M229 691 c-23 -24 -29 -38 -29 -73 0 -54 25 -81 116 -126 62 -31 74
-45 74 -86 0 -60 -94 -76 -133 -24 -18 24 -19 31 -8 54 15 34 6 42 -27 23 -22
-12 -27 -22 -27 -54 0 -55 44 -85 126 -85 51 0 63 4 91 29 28 25 33 36 33 74
0 56 -19 79 -100 119 -78 39 -95 55 -95 88 0 34 28 60 66 60 50 0 68 -20 61
-68 -6 -48 9 -56 43 -22 28 28 25 57 -9 91 -26 26 -36 29 -91 29 -55 0 -65 -3
-91 -29z"/>
<path d="M912 580 c-18 -11 -40 -36 -48 -55 -28 -67 -10 -171 34 -194 32 -17
81 -13 112 9 l29 21 11 -21 c12 -22 40 -26 71 -10 27 15 24 30 -7 30 l-26 0 4
114 3 115 -29 5 c-58 12 -121 6 -154 -14z m126 -94 c3 -70 0 -81 -19 -102 -29
-31 -73 -31 -93 -2 -24 34 -21 129 5 162 18 23 28 27 63 24 l41 -3 3 -79z"/>
<path d="M1211 587 c-32 -16 -37 -33 -10 -40 20 -5 21 -11 18 -97 -3 -75 -7
-93 -22 -101 -27 -16 -10 -29 37 -29 47 0 61 7 47 24 -28 36 -15 155 21 193
24 25 60 30 76 10 6 -7 13 -57 14 -111 3 -111 14 -129 64 -111 36 13 45 38 13
33 -24 -3 -24 -2 -29 105 -6 122 -14 137 -78 137 -27 0 -42 -8 -68 -36 l-34
-35 0 35 c0 39 -10 44 -49 23z"/>
</g>
</svg>
